<svg width="18" height="18" viewBox="0 0 18 18" fill="none" xmlns="http://www.w3.org/2000/svg">
<path d="M17.7465 8.12544L13.4956 4.03282V0.775648C13.4956 0.35608 13.1497 0.0101212 12.7301 0.0101212C12.3105 0.0101212 11.9646 0.35608 11.9646 0.775648V2.56065L9.51341 0.201503C9.24474 -0.0671676 8.78468 -0.0671676 8.47921 0.201503L0.249797 8.12544C-0.0556779 8.43091 -0.0961624 8.89097 0.212993 9.19644C0.522148 9.50192 0.978519 9.5424 1.28399 9.23325L1.39809 9.12283V17.2345C1.39809 17.654 1.74405 18 2.16361 18H15.8695C16.2891 18 16.5982 17.654 16.635 17.2713V9.20012L16.7123 9.27373C17.2717 9.66017 17.6692 9.38782 17.7833 9.19644C18.052 8.89097 18.052 8.39411 17.7465 8.12544ZM10.3562 16.5094H7.67688V12.4131H10.3562V16.5094ZM15.104 16.5094H11.8505V11.6476C11.8505 11.228 11.5045 10.8821 11.0849 10.8821H6.91135C6.49178 10.8821 6.14582 11.228 6.14582 11.6476V16.5094H2.92914V9.00506H15.104V16.5094ZM3.07636 7.51449L9.01655 1.80984L14.8979 7.51449H3.07636Z" fill="white"/>
</svg>
