<svg width="230" height="214" viewBox="0 0 230 214" fill="none" xmlns="http://www.w3.org/2000/svg">
<path opacity="0.2" d="M36.2773 11.3383C90.4814 -0.161879 146.951 -1.61701 201.651 1.29325C223.283 2.46674 246.332 5.28312 263.326 23.0263C279.364 39.7838 287.153 67.572 287.932 94.6093C288.675 121.647 283.223 148.308 276.815 173.984C273.062 189.005 267.893 205.481 256.847 211.536C245.482 217.826 237.01 211.536 226.623 198.772C219.72 190.291 228.984 147.818 177.993 142.269C129.836 145.296 129.816 127.843 106.909 120.379C93.597 116.014 79.6831 116.389 65.9462 116.014C52.2447 115.638 38.1891 114.465 25.5497 107.33C-15.838 83.8601 -3.09244 19.6936 36.2773 11.3383Z" fill="#121414"/>
</svg>
